<svg xmlns="http://www.w3.org/2000/svg" xmlns:xlink="http://www.w3.org/1999/xlink" width="500" zoomAndPan="magnify" viewBox="0 0 375 374.999991" height="500" preserveAspectRatio="xMidYMid meet" version="1.0"><defs><clipPath id="45c8f735cb"><path d="M 0 0 L 4.148438 0 L 4.148438 7.808594 L 0 7.808594 Z M 0 0 " clip-rule="nonzero"/></clipPath><clipPath id="c158a42ceb"><path d="M 7.058594 7.058594 L 367.808594 7.058594 L 367.808594 367.808594 L 7.058594 367.808594 Z M 7.058594 7.058594 " clip-rule="nonzero"/></clipPath></defs><g clip-path="url(#45c8f735cb)"><path fill="#000000" d="M -22.042969 -42.265625 L -22.042969 -38.496094 L -25.8125 -38.496094 L -25.8125 -35.984375 L -22.042969 -35.984375 L -22.042969 -32.214844 L -19.53125 -32.214844 L -19.53125 -35.984375 L -15.761719 -35.984375 L -15.761719 -38.496094 L -19.53125 -38.496094 L -19.53125 -42.265625 Z M -35.859375 -37.238281 L -35.859375 -32.214844 L -40.886719 -32.214844 L -40.886719 -29.703125 L -35.859375 -29.703125 L -35.859375 -24.675781 L -33.347656 -24.675781 L -33.347656 -29.703125 L -28.324219 -29.703125 L -28.324219 -32.214844 L -33.347656 -32.214844 L -33.347656 -37.238281 Z M -8.222656 -37.238281 L -8.222656 -32.214844 L -13.25 -32.214844 L -13.25 -29.703125 L -8.222656 -29.703125 L -8.222656 -24.675781 L -5.710938 -24.675781 L -5.710938 -29.703125 L -0.6875 -29.703125 L -0.6875 -32.214844 L -5.710938 -32.214844 L -5.710938 -37.238281 Z M -23.296875 -27.1875 L -23.296875 -19.652344 L -30.835938 -19.652344 L -30.835938 -14.625 L -23.296875 -14.625 L -23.296875 -7.089844 L -18.273438 -7.089844 L -18.273438 -14.625 L -10.734375 -14.625 L -10.734375 -19.652344 L -18.273438 -19.652344 L -18.273438 -27.1875 Z M -42.140625 -22.164062 L -42.140625 -18.394531 L -45.910156 -18.394531 L -45.910156 -15.882812 L -42.140625 -15.882812 L -42.140625 -12.113281 L -39.628906 -12.113281 L -39.628906 -15.882812 L -35.859375 -15.882812 L -35.859375 -18.394531 L -39.628906 -18.394531 L -39.628906 -22.164062 Z M -1.941406 -22.164062 L -1.941406 -18.394531 L -5.710938 -18.394531 L -5.710938 -15.882812 L -1.941406 -15.882812 L -1.941406 -12.113281 L 0.570312 -12.113281 L 0.570312 -15.882812 L 4.339844 -15.882812 L 4.339844 -18.394531 L 0.570312 -18.394531 L 0.570312 -22.164062 Z M -35.859375 -9.601562 L -35.859375 -4.578125 L -40.886719 -4.578125 L -40.886719 -2.0625 L -35.859375 -2.0625 L -35.859375 2.960938 L -33.347656 2.960938 L -33.347656 -2.0625 L -28.324219 -2.0625 L -28.324219 -4.578125 L -33.347656 -4.578125 L -33.347656 -9.601562 Z M -8.222656 -9.601562 L -8.222656 -4.578125 L -13.25 -4.578125 L -13.25 -2.0625 L -8.222656 -2.0625 L -8.222656 2.960938 L -5.710938 2.960938 L -5.710938 -2.0625 L -0.6875 -2.0625 L -0.6875 -4.578125 L -5.710938 -4.578125 L -5.710938 -9.601562 Z M -22.042969 -2.0625 L -22.042969 1.703125 L -25.8125 1.703125 L -25.8125 4.21875 L -22.042969 4.21875 L -22.042969 7.984375 L -19.53125 7.984375 L -19.53125 4.21875 L -15.761719 4.21875 L -15.761719 1.703125 L -19.53125 1.703125 L -19.53125 -2.0625 Z M -22.042969 -2.0625 " fill-opacity="1" fill-rule="nonzero"/></g><g clip-path="url(#c158a42ceb)"><path fill="#eee400" d="M 283.539062 339.527344 C 252.066406 339.527344 231.714844 324.519531 221.792969 304.894531 L 249.390625 288.90625 C 256.664062 300.78125 266.09375 309.492188 282.808594 309.492188 C 296.84375 309.492188 305.804688 302.472656 305.804688 292.78125 C 305.804688 278.214844 286.359375 272.507812 272.636719 266.632812 C 248.179688 256.222656 231.945312 243.140625 231.945312 215.53125 C 231.945312 190.113281 251.316406 170.746094 281.605469 170.746094 C 303.140625 170.746094 318.65625 178.25 329.78125 197.851562 L 303.386719 214.808594 C 297.578125 204.398438 291.289062 200.285156 281.597656 200.285156 C 271.664062 200.285156 265.363281 206.582031 265.363281 214.808594 C 265.363281 224.980469 271.65625 229.09375 286.195312 235.394531 C 316.65625 248.445312 339.707031 258.710938 339.707031 292.296875 C 339.722656 322.824219 315.753906 339.527344 283.539062 339.527344 Z M 205.472656 288.429688 C 205.472656 323.546875 183.84375 342.109375 153.8125 342.109375 C 126.683594 342.109375 110.4375 331.734375 102.441406 313.699219 L 101.972656 313.699219 L 129.550781 294.417969 C 134.875 303.847656 139.671875 310.542969 151.289062 310.542969 C 162.433594 310.542969 169.398438 304.902344 169.398438 287.960938 L 169.398438 169.398438 L 205.472656 169.398438 Z M 7.058594 367.808594 L 367.808594 367.808594 L 367.808594 7.058594 L 7.058594 7.058594 Z M 7.058594 367.808594 " fill-opacity="1" fill-rule="evenodd"/></g></svg>