<svg xmlns="http://www.w3.org/2000/svg" xmlns:xlink="http://www.w3.org/1999/xlink" width="500" zoomAndPan="magnify" viewBox="0 0 375 374.999991" height="500" preserveAspectRatio="xMidYMid meet" version="1.0"><defs><clipPath id="566175795f"><path d="M 0 0 L 4.148438 0 L 4.148438 7.808594 L 0 7.808594 Z M 0 0 " clip-rule="nonzero"/></clipPath><clipPath id="5f1d7cf1fd"><path d="M 90 9 L 348.140625 9 L 348.140625 365 L 90 365 Z M 90 9 " clip-rule="nonzero"/></clipPath><clipPath id="0961f0e193"><path d="M 259 9 L 348.140625 9 L 348.140625 100 L 259 100 Z M 259 9 " clip-rule="nonzero"/></clipPath><clipPath id="0725b2916f"><path d="M 27.140625 60 L 182 60 L 182 149 L 27.140625 149 Z M 27.140625 60 " clip-rule="nonzero"/></clipPath></defs><g clip-path="url(#566175795f)"><path fill="#000000" d="M -22.042969 -42.265625 L -22.042969 -38.496094 L -25.8125 -38.496094 L -25.8125 -35.984375 L -22.042969 -35.984375 L -22.042969 -32.214844 L -19.53125 -32.214844 L -19.53125 -35.984375 L -15.761719 -35.984375 L -15.761719 -38.496094 L -19.53125 -38.496094 L -19.53125 -42.265625 Z M -35.859375 -37.238281 L -35.859375 -32.214844 L -40.886719 -32.214844 L -40.886719 -29.703125 L -35.859375 -29.703125 L -35.859375 -24.675781 L -33.347656 -24.675781 L -33.347656 -29.703125 L -28.324219 -29.703125 L -28.324219 -32.214844 L -33.347656 -32.214844 L -33.347656 -37.238281 Z M -8.222656 -37.238281 L -8.222656 -32.214844 L -13.25 -32.214844 L -13.25 -29.703125 L -8.222656 -29.703125 L -8.222656 -24.675781 L -5.710938 -24.675781 L -5.710938 -29.703125 L -0.6875 -29.703125 L -0.6875 -32.214844 L -5.710938 -32.214844 L -5.710938 -37.238281 Z M -23.296875 -27.1875 L -23.296875 -19.652344 L -30.835938 -19.652344 L -30.835938 -14.625 L -23.296875 -14.625 L -23.296875 -7.089844 L -18.273438 -7.089844 L -18.273438 -14.625 L -10.734375 -14.625 L -10.734375 -19.652344 L -18.273438 -19.652344 L -18.273438 -27.1875 Z M -42.140625 -22.164062 L -42.140625 -18.394531 L -45.910156 -18.394531 L -45.910156 -15.882812 L -42.140625 -15.882812 L -42.140625 -12.113281 L -39.628906 -12.113281 L -39.628906 -15.882812 L -35.859375 -15.882812 L -35.859375 -18.394531 L -39.628906 -18.394531 L -39.628906 -22.164062 Z M -1.941406 -22.164062 L -1.941406 -18.394531 L -5.710938 -18.394531 L -5.710938 -15.882812 L -1.941406 -15.882812 L -1.941406 -12.113281 L 0.570312 -12.113281 L 0.570312 -15.882812 L 4.339844 -15.882812 L 4.339844 -18.394531 L 0.570312 -18.394531 L 0.570312 -22.164062 Z M -35.859375 -9.601562 L -35.859375 -4.578125 L -40.886719 -4.578125 L -40.886719 -2.0625 L -35.859375 -2.0625 L -35.859375 2.960938 L -33.347656 2.960938 L -33.347656 -2.0625 L -28.324219 -2.0625 L -28.324219 -4.578125 L -33.347656 -4.578125 L -33.347656 -9.601562 Z M -8.222656 -9.601562 L -8.222656 -4.578125 L -13.25 -4.578125 L -13.25 -2.0625 L -8.222656 -2.0625 L -8.222656 2.960938 L -5.710938 2.960938 L -5.710938 -2.0625 L -0.6875 -2.0625 L -0.6875 -4.578125 L -5.710938 -4.578125 L -5.710938 -9.601562 Z M -22.042969 -2.0625 L -22.042969 1.703125 L -25.8125 1.703125 L -25.8125 4.21875 L -22.042969 4.21875 L -22.042969 7.984375 L -19.53125 7.984375 L -19.53125 4.21875 L -15.761719 4.21875 L -15.761719 1.703125 L -19.53125 1.703125 L -19.53125 -2.0625 Z M -22.042969 -2.0625 " fill-opacity="1" fill-rule="nonzero"/></g><path fill="#221f1f" d="M 134.75 18.023438 L 134.75 108.136719 L 224.121094 108.136719 " fill-opacity="0.35" fill-rule="nonzero"/><g clip-path="url(#5f1d7cf1fd)"><path fill="#107c42" d="M 259.683594 9.832031 L 113.777344 9.832031 C 101.007812 9.832031 90.066406 20.753906 90.066406 33.5 L 90.066406 341.15625 C 90.066406 353.902344 101.007812 364.824219 113.777344 364.824219 L 324.433594 364.824219 C 337.199219 364.824219 348.140625 353.902344 348.140625 341.15625 L 348.140625 99.035156 Z M 259.683594 9.832031 " fill-opacity="1" fill-rule="nonzero"/></g><g clip-path="url(#0961f0e193)"><path fill="#221f1f" d="M 259.683594 9.832031 L 259.683594 99.035156 L 348.140625 99.035156 " fill-opacity="0.35" fill-rule="nonzero"/></g><path fill="#f1f2f2" d="M 167.578125 146.367188 L 41.734375 146.367188 C 34.4375 146.367188 28.054688 139.996094 28.054688 132.714844 L 28.054688 75.371094 C 28.054688 68.085938 34.4375 61.714844 41.734375 61.714844 L 166.667969 61.714844 C 173.964844 61.714844 180.347656 68.085938 180.347656 75.371094 L 180.347656 133.625 C 181.257812 140.90625 174.875 146.367188 167.578125 146.367188 Z M 167.578125 146.367188 " fill-opacity="1" fill-rule="nonzero"/><g clip-path="url(#0725b2916f)"><path fill="#107c42" d="M 167.578125 148.1875 L 41.734375 148.1875 C 33.527344 148.1875 27.140625 141.816406 27.140625 133.625 L 27.140625 75.371094 C 27.140625 67.175781 33.527344 60.804688 41.734375 60.804688 L 166.667969 60.804688 C 174.875 60.804688 181.257812 67.175781 181.257812 75.371094 L 181.257812 133.625 C 182.171875 140.90625 174.875 148.1875 167.578125 148.1875 Z M 41.734375 62.625 C 34.4375 62.625 28.964844 68.085938 28.964844 75.371094 L 28.964844 133.625 C 28.964844 140.90625 34.4375 146.367188 41.734375 146.367188 L 166.667969 146.367188 C 173.964844 146.367188 179.433594 140.90625 179.433594 133.625 L 179.433594 75.371094 C 179.433594 68.085938 173.964844 62.625 166.667969 62.625 Z M 41.734375 62.625 " fill-opacity="1" fill-rule="nonzero"/></g><path fill="#107c42" d="M 83.683594 122.703125 L 76.386719 111.777344 L 70.003906 122.703125 L 59.058594 122.703125 L 70.914062 103.585938 L 59.058594 85.382812 L 69.089844 85.382812 L 76.386719 96.304688 L 82.769531 85.382812 L 92.800781 85.382812 L 80.945312 103.585938 L 92.800781 121.792969 L 83.683594 121.792969 Z M 83.683594 122.703125 " fill-opacity="1" fill-rule="nonzero"/><path fill="#107c42" d="M 107.390625 115.417969 L 119.246094 115.417969 L 119.246094 122.703125 L 98.273438 122.703125 L 98.273438 86.292969 L 107.390625 86.292969 Z M 107.390625 115.417969 " fill-opacity="1" fill-rule="nonzero"/><path fill="#107c42" d="M 129.277344 121.792969 C 127.453125 120.882812 125.628906 119.972656 123.808594 118.152344 C 122.894531 116.332031 121.984375 114.507812 121.984375 111.777344 L 131.101562 111.777344 C 131.101562 112.6875 132.015625 114.507812 132.925781 114.507812 C 133.839844 115.417969 134.75 115.417969 135.660156 115.417969 C 136.574219 115.417969 138.398438 115.417969 138.398438 114.507812 C 139.308594 113.597656 139.308594 112.6875 139.308594 111.777344 C 139.308594 110.867188 139.308594 109.957031 138.398438 109.957031 C 137.484375 109.046875 137.484375 109.046875 136.574219 108.136719 C 135.660156 108.136719 134.75 107.226562 132.925781 107.226562 C 130.191406 106.316406 128.367188 105.40625 127.453125 105.40625 C 125.628906 104.496094 124.71875 103.585938 123.808594 101.765625 C 122.894531 99.945312 121.984375 98.125 121.984375 96.304688 C 121.984375 92.664062 122.894531 89.933594 125.628906 88.113281 C 128.367188 86.292969 131.101562 85.382812 135.660156 85.382812 C 139.308594 85.382812 142.957031 86.292969 145.691406 88.113281 C 148.429688 89.933594 149.339844 92.664062 149.339844 96.304688 L 139.308594 96.304688 C 139.308594 95.394531 138.398438 94.484375 138.398438 93.574219 C 137.484375 92.664062 136.574219 92.664062 135.660156 92.664062 C 134.75 92.664062 133.839844 92.664062 132.925781 93.574219 C 132.015625 94.484375 132.015625 95.394531 132.015625 96.304688 C 132.015625 97.214844 132.925781 98.125 133.839844 99.035156 C 134.75 99.945312 136.574219 100.855469 139.308594 100.855469 C 142.046875 101.765625 143.871094 102.675781 144.78125 103.585938 C 146.605469 104.496094 147.515625 105.40625 148.429688 107.226562 C 149.339844 109.046875 150.253906 110.867188 150.253906 112.6875 C 150.253906 114.507812 149.339844 116.332031 148.429688 118.152344 C 147.515625 119.972656 145.691406 120.882812 143.871094 121.792969 C 142.046875 122.703125 139.308594 123.613281 136.574219 123.613281 C 133.839844 122.703125 132.015625 122.703125 129.277344 121.792969 Z M 129.277344 121.792969 " fill-opacity="1" fill-rule="nonzero"/><path fill="#ffffff" d="M 132.925781 195.519531 L 211.351562 195.519531 L 211.351562 217.367188 L 132.925781 217.367188 Z M 132.925781 195.519531 " fill-opacity="1" fill-rule="nonzero"/><path fill="#ffffff" d="M 132.925781 241.03125 L 211.351562 241.03125 L 211.351562 262.878906 L 132.925781 262.878906 Z M 132.925781 241.03125 " fill-opacity="1" fill-rule="nonzero"/><path fill="#ffffff" d="M 132.925781 287.453125 L 211.351562 287.453125 L 211.351562 309.300781 L 132.925781 309.300781 Z M 132.925781 287.453125 " fill-opacity="1" fill-rule="nonzero"/><path fill="#ffffff" d="M 226.855469 195.519531 L 305.28125 195.519531 L 305.28125 217.367188 L 226.855469 217.367188 Z M 226.855469 195.519531 " fill-opacity="1" fill-rule="nonzero"/><path fill="#ffffff" d="M 226.855469 241.03125 L 305.28125 241.03125 L 305.28125 262.878906 L 226.855469 262.878906 Z M 226.855469 241.03125 " fill-opacity="1" fill-rule="nonzero"/><path fill="#ffffff" d="M 226.855469 287.453125 L 305.28125 287.453125 L 305.28125 309.300781 L 226.855469 309.300781 Z M 226.855469 287.453125 " fill-opacity="1" fill-rule="nonzero"/></svg>