<svg xmlns="http://www.w3.org/2000/svg" xmlns:xlink="http://www.w3.org/1999/xlink" width="500" zoomAndPan="magnify" viewBox="0 0 375 374.999991" height="500" preserveAspectRatio="xMidYMid meet" version="1.0"><defs><filter x="0%" y="0%" width="100%" height="100%" id="51d96535b8"><feColorMatrix values="0 0 0 0 1 0 0 0 0 1 0 0 0 0 1 0 0 0 1 0" color-interpolation-filters="sRGB"/></filter><clipPath id="c89b564a52"><path d="M 0 0 L 4.148438 0 L 4.148438 7.808594 L 0 7.808594 Z M 0 0 " clip-rule="nonzero"/></clipPath><mask id="693a7d793b"><g filter="url(#51d96535b8)"><rect x="-37.5" width="450" fill="#000000" y="-37.499999" height="449.999989" fill-opacity="0.35"/></g></mask><clipPath id="cc9654b818"><rect x="0" width="98" y="0" height="98"/></clipPath><clipPath id="5e3fa89270"><path d="M 93 16 L 341.453125 16 L 341.453125 359 L 93 359 Z M 93 16 " clip-rule="nonzero"/></clipPath><clipPath id="bd653e9dfb"><path d="M 252 16 L 341.453125 16 L 341.453125 105 L 252 105 Z M 252 16 " clip-rule="nonzero"/></clipPath><mask id="905e517d2a"><g filter="url(#51d96535b8)"><rect x="-37.5" width="450" fill="#000000" y="-37.499999" height="449.999989" fill-opacity="0.35"/></g></mask><clipPath id="313bd64631"><path d="M 4 0.320312 L 89.453125 0.320312 L 89.453125 87 L 4 87 Z M 4 0.320312 " clip-rule="nonzero"/></clipPath><clipPath id="89424aedf7"><rect x="0" width="90" y="0" height="89"/></clipPath><clipPath id="7fbd7ed1ea"><path d="M 33.203125 65 L 182 65 L 182 150 L 33.203125 150 Z M 33.203125 65 " clip-rule="nonzero"/></clipPath></defs><g clip-path="url(#c89b564a52)"><path fill="#000000" d="M -22.042969 -42.265625 L -22.042969 -38.496094 L -25.8125 -38.496094 L -25.8125 -35.984375 L -22.042969 -35.984375 L -22.042969 -32.214844 L -19.53125 -32.214844 L -19.53125 -35.984375 L -15.761719 -35.984375 L -15.761719 -38.496094 L -19.53125 -38.496094 L -19.53125 -42.265625 Z M -35.859375 -37.238281 L -35.859375 -32.214844 L -40.886719 -32.214844 L -40.886719 -29.703125 L -35.859375 -29.703125 L -35.859375 -24.675781 L -33.347656 -24.675781 L -33.347656 -29.703125 L -28.324219 -29.703125 L -28.324219 -32.214844 L -33.347656 -32.214844 L -33.347656 -37.238281 Z M -8.222656 -37.238281 L -8.222656 -32.214844 L -13.25 -32.214844 L -13.25 -29.703125 L -8.222656 -29.703125 L -8.222656 -24.675781 L -5.710938 -24.675781 L -5.710938 -29.703125 L -0.6875 -29.703125 L -0.6875 -32.214844 L -5.710938 -32.214844 L -5.710938 -37.238281 Z M -23.296875 -27.1875 L -23.296875 -19.652344 L -30.835938 -19.652344 L -30.835938 -14.625 L -23.296875 -14.625 L -23.296875 -7.089844 L -18.273438 -7.089844 L -18.273438 -14.625 L -10.734375 -14.625 L -10.734375 -19.652344 L -18.273438 -19.652344 L -18.273438 -27.1875 Z M -42.140625 -22.164062 L -42.140625 -18.394531 L -45.910156 -18.394531 L -45.910156 -15.882812 L -42.140625 -15.882812 L -42.140625 -12.113281 L -39.628906 -12.113281 L -39.628906 -15.882812 L -35.859375 -15.882812 L -35.859375 -18.394531 L -39.628906 -18.394531 L -39.628906 -22.164062 Z M -1.941406 -22.164062 L -1.941406 -18.394531 L -5.710938 -18.394531 L -5.710938 -15.882812 L -1.941406 -15.882812 L -1.941406 -12.113281 L 0.570312 -12.113281 L 0.570312 -15.882812 L 4.339844 -15.882812 L 4.339844 -18.394531 L 0.570312 -18.394531 L 0.570312 -22.164062 Z M -35.859375 -9.601562 L -35.859375 -4.578125 L -40.886719 -4.578125 L -40.886719 -2.0625 L -35.859375 -2.0625 L -35.859375 2.960938 L -33.347656 2.960938 L -33.347656 -2.0625 L -28.324219 -2.0625 L -28.324219 -4.578125 L -33.347656 -4.578125 L -33.347656 -9.601562 Z M -8.222656 -9.601562 L -8.222656 -4.578125 L -13.25 -4.578125 L -13.25 -2.0625 L -8.222656 -2.0625 L -8.222656 2.960938 L -5.710938 2.960938 L -5.710938 -2.0625 L -0.6875 -2.0625 L -0.6875 -4.578125 L -5.710938 -4.578125 L -5.710938 -9.601562 Z M -22.042969 -2.0625 L -22.042969 1.703125 L -25.8125 1.703125 L -25.8125 4.21875 L -22.042969 4.21875 L -22.042969 7.984375 L -19.53125 7.984375 L -19.53125 4.21875 L -15.761719 4.21875 L -15.761719 1.703125 L -19.53125 1.703125 L -19.53125 -2.0625 Z M -22.042969 -2.0625 " fill-opacity="1" fill-rule="nonzero"/></g><g mask="url(#693a7d793b)"><g transform="matrix(1, 0, 0, 1, 129, 16)"><g clip-path="url(#cc9654b818)"><path fill="#f1f2f2" d="M 7.652344 8.433594 L 7.652344 95.226562 L 93.566406 95.226562 " fill-opacity="1" fill-rule="nonzero"/></g></g></g><g clip-path="url(#5e3fa89270)"><path fill="#000000" d="M 256.757812 16.546875 L 116.488281 16.546875 C 104.214844 16.546875 93.695312 27.066406 93.695312 39.339844 L 93.695312 335.65625 C 93.695312 347.929688 104.214844 358.449219 116.488281 358.449219 L 319 358.449219 C 331.273438 358.449219 341.792969 347.929688 341.792969 335.65625 L 341.792969 102.460938 Z M 256.757812 16.546875 " fill-opacity="1" fill-rule="nonzero"/></g><g clip-path="url(#bd653e9dfb)"><g mask="url(#905e517d2a)"><g transform="matrix(1, 0, 0, 1, 252, 16)"><g clip-path="url(#89424aedf7)"><g clip-path="url(#313bd64631)"><path fill="#f1f2f2" d="M 4.757812 0.546875 L 4.757812 86.460938 L 89.792969 86.460938 " fill-opacity="1" fill-rule="nonzero"/></g></g></g></g></g><path fill="#f1f2f2" d="M 168.210938 148.046875 L 47.230469 148.046875 C 40.21875 148.046875 34.082031 141.910156 34.082031 134.894531 L 34.082031 79.664062 C 34.082031 72.652344 40.21875 66.515625 47.230469 66.515625 L 167.335938 66.515625 C 174.347656 66.515625 180.484375 72.652344 180.484375 79.664062 L 180.484375 135.773438 C 181.363281 142.785156 175.226562 148.046875 168.210938 148.046875 Z M 168.210938 148.046875 " fill-opacity="1" fill-rule="nonzero"/><g clip-path="url(#7fbd7ed1ea)"><path fill="#000000" d="M 168.210938 149.800781 L 47.230469 149.800781 C 39.339844 149.800781 33.203125 143.664062 33.203125 135.773438 L 33.203125 79.664062 C 33.203125 71.777344 39.339844 65.640625 47.230469 65.640625 L 167.335938 65.640625 C 175.226562 65.640625 181.363281 71.777344 181.363281 79.664062 L 181.363281 135.773438 C 182.238281 142.785156 175.226562 149.800781 168.210938 149.800781 Z M 47.230469 67.390625 C 40.21875 67.390625 34.957031 72.652344 34.957031 79.664062 L 34.957031 135.773438 C 34.957031 142.785156 40.21875 148.046875 47.230469 148.046875 L 167.335938 148.046875 C 174.347656 148.046875 179.609375 142.785156 179.609375 135.773438 L 179.609375 79.664062 C 179.609375 72.652344 174.347656 67.390625 167.335938 67.390625 Z M 47.230469 67.390625 " fill-opacity="1" fill-rule="nonzero"/></g><path fill="#000000" d="M 87.558594 125.253906 L 80.542969 114.734375 L 74.40625 125.253906 L 63.886719 125.253906 L 75.285156 106.84375 L 63.886719 89.308594 L 73.53125 89.308594 L 80.542969 99.828125 L 86.679688 89.308594 L 96.324219 89.308594 L 84.929688 106.84375 L 96.324219 124.375 L 87.558594 124.375 Z M 87.558594 125.253906 " fill-opacity="1" fill-rule="nonzero"/><path fill="#000000" d="M 110.351562 118.238281 L 121.75 118.238281 L 121.75 125.253906 L 101.585938 125.253906 L 101.585938 90.1875 L 110.351562 90.1875 Z M 110.351562 118.238281 " fill-opacity="1" fill-rule="nonzero"/><path fill="#000000" d="M 131.390625 124.375 C 129.636719 123.5 127.886719 122.621094 126.132812 120.871094 C 125.253906 119.117188 124.378906 117.363281 124.378906 114.734375 L 133.144531 114.734375 C 133.144531 115.609375 134.023438 117.363281 134.898438 117.363281 C 135.773438 118.238281 136.652344 118.238281 137.527344 118.238281 C 138.40625 118.238281 140.160156 118.238281 140.160156 117.363281 C 141.035156 116.484375 141.035156 115.609375 141.035156 114.734375 C 141.035156 113.855469 141.035156 112.980469 140.160156 112.980469 C 139.28125 112.101562 139.28125 112.101562 138.40625 111.226562 C 137.527344 111.226562 136.652344 110.347656 134.898438 110.347656 C 132.269531 109.472656 130.515625 108.597656 129.636719 108.597656 C 127.886719 107.71875 127.007812 106.84375 126.132812 105.089844 C 125.253906 103.335938 124.378906 101.582031 124.378906 99.828125 C 124.378906 96.324219 125.253906 93.691406 127.886719 91.9375 C 130.515625 90.1875 133.144531 89.308594 137.527344 89.308594 C 141.035156 89.308594 144.542969 90.1875 147.171875 91.9375 C 149.800781 93.691406 150.679688 96.324219 150.679688 99.828125 L 141.035156 99.828125 C 141.035156 98.953125 140.160156 98.074219 140.160156 97.199219 C 139.28125 96.324219 138.40625 96.324219 137.527344 96.324219 C 136.652344 96.324219 135.773438 96.324219 134.898438 97.199219 C 134.023438 98.074219 134.023438 98.953125 134.023438 99.828125 C 134.023438 100.707031 134.898438 101.582031 135.773438 102.460938 C 136.652344 103.335938 138.40625 104.210938 141.035156 104.210938 C 143.664062 105.089844 145.417969 105.964844 146.296875 106.84375 C 148.046875 107.71875 148.925781 108.597656 149.800781 110.347656 C 150.679688 112.101562 151.554688 113.855469 151.554688 115.609375 C 151.554688 117.363281 150.679688 119.117188 149.800781 120.871094 C 148.925781 122.621094 147.171875 123.5 145.417969 124.375 C 143.664062 125.253906 141.035156 126.128906 138.40625 126.128906 C 135.773438 125.253906 134.023438 125.253906 131.390625 124.375 Z M 131.390625 124.375 " fill-opacity="1" fill-rule="nonzero"/><path fill="#ffffff" d="M 134.898438 195.386719 L 210.292969 195.386719 L 210.292969 216.425781 L 134.898438 216.425781 Z M 134.898438 195.386719 " fill-opacity="1" fill-rule="nonzero"/><path fill="#ffffff" d="M 134.898438 239.21875 L 210.292969 239.21875 L 210.292969 260.261719 L 134.898438 260.261719 Z M 134.898438 239.21875 " fill-opacity="1" fill-rule="nonzero"/><path fill="#ffffff" d="M 134.898438 283.929688 L 210.292969 283.929688 L 210.292969 304.972656 L 134.898438 304.972656 Z M 134.898438 283.929688 " fill-opacity="1" fill-rule="nonzero"/><path fill="#ffffff" d="M 225.195312 195.386719 L 300.589844 195.386719 L 300.589844 216.425781 L 225.195312 216.425781 Z M 225.195312 195.386719 " fill-opacity="1" fill-rule="nonzero"/><path fill="#ffffff" d="M 225.195312 239.21875 L 300.589844 239.21875 L 300.589844 260.261719 L 225.195312 260.261719 Z M 225.195312 239.21875 " fill-opacity="1" fill-rule="nonzero"/><path fill="#ffffff" d="M 225.195312 283.929688 L 300.589844 283.929688 L 300.589844 304.972656 L 225.195312 304.972656 Z M 225.195312 283.929688 " fill-opacity="1" fill-rule="nonzero"/></svg>