<svg xmlns="http://www.w3.org/2000/svg" xmlns:xlink="http://www.w3.org/1999/xlink" width="500" zoomAndPan="magnify" viewBox="0 0 375 374.999991" height="500" preserveAspectRatio="xMidYMid meet" version="1.0"><defs><clipPath id="fb78d883cb"><path d="M 0 0 L 4.148438 0 L 4.148438 7.808594 L 0 7.808594 Z M 0 0 " clip-rule="nonzero"/></clipPath></defs><g clip-path="url(#fb78d883cb)"><path fill="#000000" d="M -22.042969 -42.265625 L -22.042969 -38.496094 L -25.8125 -38.496094 L -25.8125 -35.984375 L -22.042969 -35.984375 L -22.042969 -32.214844 L -19.53125 -32.214844 L -19.53125 -35.984375 L -15.761719 -35.984375 L -15.761719 -38.496094 L -19.53125 -38.496094 L -19.53125 -42.265625 Z M -35.859375 -37.238281 L -35.859375 -32.214844 L -40.886719 -32.214844 L -40.886719 -29.703125 L -35.859375 -29.703125 L -35.859375 -24.675781 L -33.347656 -24.675781 L -33.347656 -29.703125 L -28.324219 -29.703125 L -28.324219 -32.214844 L -33.347656 -32.214844 L -33.347656 -37.238281 Z M -8.222656 -37.238281 L -8.222656 -32.214844 L -13.25 -32.214844 L -13.25 -29.703125 L -8.222656 -29.703125 L -8.222656 -24.675781 L -5.710938 -24.675781 L -5.710938 -29.703125 L -0.6875 -29.703125 L -0.6875 -32.214844 L -5.710938 -32.214844 L -5.710938 -37.238281 Z M -23.296875 -27.1875 L -23.296875 -19.652344 L -30.835938 -19.652344 L -30.835938 -14.625 L -23.296875 -14.625 L -23.296875 -7.089844 L -18.273438 -7.089844 L -18.273438 -14.625 L -10.734375 -14.625 L -10.734375 -19.652344 L -18.273438 -19.652344 L -18.273438 -27.1875 Z M -42.140625 -22.164062 L -42.140625 -18.394531 L -45.910156 -18.394531 L -45.910156 -15.882812 L -42.140625 -15.882812 L -42.140625 -12.113281 L -39.628906 -12.113281 L -39.628906 -15.882812 L -35.859375 -15.882812 L -35.859375 -18.394531 L -39.628906 -18.394531 L -39.628906 -22.164062 Z M -1.941406 -22.164062 L -1.941406 -18.394531 L -5.710938 -18.394531 L -5.710938 -15.882812 L -1.941406 -15.882812 L -1.941406 -12.113281 L 0.570312 -12.113281 L 0.570312 -15.882812 L 4.339844 -15.882812 L 4.339844 -18.394531 L 0.570312 -18.394531 L 0.570312 -22.164062 Z M -35.859375 -9.601562 L -35.859375 -4.578125 L -40.886719 -4.578125 L -40.886719 -2.0625 L -35.859375 -2.0625 L -35.859375 2.960938 L -33.347656 2.960938 L -33.347656 -2.0625 L -28.324219 -2.0625 L -28.324219 -4.578125 L -33.347656 -4.578125 L -33.347656 -9.601562 Z M -8.222656 -9.601562 L -8.222656 -4.578125 L -13.25 -4.578125 L -13.25 -2.0625 L -8.222656 -2.0625 L -8.222656 2.960938 L -5.710938 2.960938 L -5.710938 -2.0625 L -0.6875 -2.0625 L -0.6875 -4.578125 L -5.710938 -4.578125 L -5.710938 -9.601562 Z M -22.042969 -2.0625 L -22.042969 1.703125 L -25.8125 1.703125 L -25.8125 4.21875 L -22.042969 4.21875 L -22.042969 7.984375 L -19.53125 7.984375 L -19.53125 4.21875 L -15.761719 4.21875 L -15.761719 1.703125 L -19.53125 1.703125 L -19.53125 -2.0625 Z M -22.042969 -2.0625 " fill-opacity="1" fill-rule="nonzero"/></g><path fill="#7ed957" d="M 172.957031 18.476562 C 181.613281 13.574219 192.648438 13.554688 201.085938 18.476562 L 330.308594 91.320312 C 338.390625 95.863281 343.796875 104.875 343.722656 114.191406 L 343.722656 260.246094 C 343.777344 269.949219 337.835938 279.15625 329.3125 283.613281 L 200.785156 356.121094 C 199.691406 356.726562 198.558594 357.253906 197.394531 357.710938 C 196.230469 358.164062 195.042969 358.539062 193.828125 358.832031 C 192.613281 359.128906 191.382812 359.34375 190.140625 359.472656 C 188.898438 359.605469 187.652344 359.652344 186.402344 359.621094 C 185.152344 359.585938 183.910156 359.46875 182.675781 359.265625 C 181.441406 359.066406 180.226562 358.785156 179.03125 358.425781 C 177.832031 358.0625 176.667969 357.621094 175.527344 357.105469 C 174.390625 356.585938 173.292969 355.996094 172.234375 355.332031 L 133.664062 333.042969 C 131.035156 331.476562 128.082031 330.230469 126.21875 327.6875 C 127.863281 325.480469 130.785156 325.199219 133.167969 324.226562 C 138.53125 322.519531 143.445312 319.898438 148.378906 317.128906 C 149.621094 316.265625 151.148438 316.589844 152.335938 317.367188 L 185.226562 336.386719 C 187.574219 337.738281 189.953125 335.953125 191.964844 334.820312 L 318.167969 263.597656 C 319.726562 262.839844 320.59375 261.195312 320.460938 259.488281 L 320.460938 114.839844 C 320.636719 112.890625 319.519531 111.117188 317.757812 110.328125 L 189.554688 38.132812 C 189.183594 37.878906 188.785156 37.683594 188.355469 37.546875 C 187.929688 37.414062 187.488281 37.347656 187.039062 37.347656 C 186.589844 37.34375 186.152344 37.410156 185.722656 37.542969 C 185.292969 37.675781 184.894531 37.867188 184.523438 38.121094 L 56.503906 110.46875 C 54.773438 111.257812 53.582031 113.011719 53.800781 114.957031 L 53.800781 259.605469 C 53.648438 261.316406 54.554688 262.925781 56.125 263.664062 L 90.335938 282.976562 C 96.761719 286.4375 104.648438 288.382812 111.722656 285.84375 C 112.492188 285.550781 113.234375 285.207031 113.953125 284.800781 C 114.667969 284.398438 115.351562 283.945312 116 283.4375 C 116.648438 282.929688 117.253906 282.378906 117.816406 281.777344 C 118.378906 281.179688 118.894531 280.542969 119.363281 279.863281 C 119.828125 279.1875 120.242188 278.480469 120.601562 277.738281 C 120.960938 277 121.261719 276.238281 121.503906 275.449219 C 121.746094 274.664062 121.929688 273.867188 122.050781 273.050781 C 122.171875 272.238281 122.230469 271.421875 122.226562 270.597656 L 122.261719 126.816406 C 122.109375 124.683594 124.121094 122.921875 126.1875 123.136719 L 142.632812 123.136719 C 144.796875 123.082031 146.496094 125.375 146.203125 127.519531 L 146.171875 272.210938 C 146.179688 285.0625 140.902344 299.039062 129.011719 305.347656 C 114.363281 312.921875 96.253906 311.332031 81.777344 304.050781 L 44.992188 283.710938 C 36.335938 279.382812 30.527344 270.035156 30.582031 260.34375 L 30.582031 114.289062 C 30.589844 113.105469 30.679688 111.929688 30.84375 110.761719 C 31.007812 109.589844 31.25 108.4375 31.570312 107.300781 C 31.890625 106.160156 32.28125 105.050781 32.75 103.964844 C 33.21875 102.878906 33.753906 101.832031 34.363281 100.816406 C 34.96875 99.804688 35.640625 98.832031 36.375 97.910156 C 37.113281 96.984375 37.90625 96.113281 38.757812 95.296875 C 39.609375 94.476562 40.511719 93.71875 41.464844 93.019531 C 42.417969 92.320312 43.414062 91.691406 44.453125 91.125 Z M 210.21875 119.71875 C 228.902344 118.636719 248.90625 119.003906 265.71875 128.210938 C 278.734375 135.265625 285.949219 150.066406 286.1875 164.539062 C 285.820312 166.488281 283.785156 167.570312 281.925781 167.429688 C 276.515625 167.417969 271.085938 167.503906 265.652344 167.398438 C 263.347656 167.484375 262.019531 165.363281 261.726562 163.328125 C 260.167969 156.40625 256.394531 149.558594 249.878906 146.214844 C 239.882812 141.203125 228.285156 141.453125 217.378906 141.5625 C 209.417969 141.996094 200.859375 142.675781 194.121094 147.351562 C 188.925781 150.898438 187.367188 158.167969 189.21875 163.816406 C 190.949219 167.960938 195.742188 169.289062 199.648438 170.523438 C 222.171875 176.410156 246.027344 175.933594 268.132812 183.582031 C 277.273438 186.742188 286.21875 192.886719 289.359375 202.460938 C 293.449219 215.292969 291.664062 230.632812 282.542969 240.933594 C 275.140625 249.414062 264.367188 253.914062 253.601562 256.535156 C 239.289062 259.726562 224.445312 259.800781 209.914062 258.371094 C 196.25 256.816406 182.035156 253.222656 171.488281 243.917969 C 162.464844 236.085938 158.070312 223.882812 158.503906 212.113281 C 158.613281 210.121094 160.59375 208.734375 162.507812 208.898438 L 178.734375 208.898438 C 180.921875 208.746094 182.523438 210.628906 182.628906 212.683594 C 183.636719 219.175781 186.113281 226.207031 191.871094 229.996094 C 202.96875 237.15625 216.894531 236.660156 229.59375 236.863281 C 240.121094 236.398438 251.9375 236.257812 260.535156 229.292969 C 265.082031 225.320312 266.410156 218.6875 265.1875 212.976562 C 263.859375 208.152344 258.699219 205.914062 254.371094 204.320312 C 232.136719 197.289062 208.011719 199.84375 185.996094 191.878906 C 177.058594 188.722656 168.414062 182.75 164.984375 173.5625 C 160.191406 160.582031 162.386719 144.492188 172.480469 134.539062 C 182.21875 124.640625 196.5 120.820312 210.023438 119.457031 Z M 210.21875 119.71875 " fill-opacity="1" fill-rule="nonzero"/></svg>