<svg xmlns="http://www.w3.org/2000/svg" xmlns:xlink="http://www.w3.org/1999/xlink" width="500" zoomAndPan="magnify" viewBox="0 0 375 374.999991" height="500" preserveAspectRatio="xMidYMid meet" version="1.0"><defs><clipPath id="fc64ebed91"><path d="M 0 0 L 4.148438 0 L 4.148438 7.808594 L 0 7.808594 Z M 0 0 " clip-rule="nonzero"/></clipPath><clipPath id="13b77f05b5"><path d="M 19.9375 21.453125 L 355.023438 21.453125 L 355.023438 353.523438 L 19.9375 353.523438 Z M 19.9375 21.453125 " clip-rule="nonzero"/></clipPath></defs><g clip-path="url(#fc64ebed91)"><path fill="#000000" d="M -22.042969 -42.265625 L -22.042969 -38.496094 L -25.8125 -38.496094 L -25.8125 -35.984375 L -22.042969 -35.984375 L -22.042969 -32.214844 L -19.53125 -32.214844 L -19.53125 -35.984375 L -15.761719 -35.984375 L -15.761719 -38.496094 L -19.53125 -38.496094 L -19.53125 -42.265625 Z M -35.859375 -37.238281 L -35.859375 -32.214844 L -40.886719 -32.214844 L -40.886719 -29.703125 L -35.859375 -29.703125 L -35.859375 -24.675781 L -33.347656 -24.675781 L -33.347656 -29.703125 L -28.324219 -29.703125 L -28.324219 -32.214844 L -33.347656 -32.214844 L -33.347656 -37.238281 Z M -8.222656 -37.238281 L -8.222656 -32.214844 L -13.25 -32.214844 L -13.25 -29.703125 L -8.222656 -29.703125 L -8.222656 -24.675781 L -5.710938 -24.675781 L -5.710938 -29.703125 L -0.6875 -29.703125 L -0.6875 -32.214844 L -5.710938 -32.214844 L -5.710938 -37.238281 Z M -23.296875 -27.1875 L -23.296875 -19.652344 L -30.835938 -19.652344 L -30.835938 -14.625 L -23.296875 -14.625 L -23.296875 -7.089844 L -18.273438 -7.089844 L -18.273438 -14.625 L -10.734375 -14.625 L -10.734375 -19.652344 L -18.273438 -19.652344 L -18.273438 -27.1875 Z M -42.140625 -22.164062 L -42.140625 -18.394531 L -45.910156 -18.394531 L -45.910156 -15.882812 L -42.140625 -15.882812 L -42.140625 -12.113281 L -39.628906 -12.113281 L -39.628906 -15.882812 L -35.859375 -15.882812 L -35.859375 -18.394531 L -39.628906 -18.394531 L -39.628906 -22.164062 Z M -1.941406 -22.164062 L -1.941406 -18.394531 L -5.710938 -18.394531 L -5.710938 -15.882812 L -1.941406 -15.882812 L -1.941406 -12.113281 L 0.570312 -12.113281 L 0.570312 -15.882812 L 4.339844 -15.882812 L 4.339844 -18.394531 L 0.570312 -18.394531 L 0.570312 -22.164062 Z M -35.859375 -9.601562 L -35.859375 -4.578125 L -40.886719 -4.578125 L -40.886719 -2.0625 L -35.859375 -2.0625 L -35.859375 2.960938 L -33.347656 2.960938 L -33.347656 -2.0625 L -28.324219 -2.0625 L -28.324219 -4.578125 L -33.347656 -4.578125 L -33.347656 -9.601562 Z M -8.222656 -9.601562 L -8.222656 -4.578125 L -13.25 -4.578125 L -13.25 -2.0625 L -8.222656 -2.0625 L -8.222656 2.960938 L -5.710938 2.960938 L -5.710938 -2.0625 L -0.6875 -2.0625 L -0.6875 -4.578125 L -5.710938 -4.578125 L -5.710938 -9.601562 Z M -22.042969 -2.0625 L -22.042969 1.703125 L -25.8125 1.703125 L -25.8125 4.21875 L -22.042969 4.21875 L -22.042969 7.984375 L -19.53125 7.984375 L -19.53125 4.21875 L -15.761719 4.21875 L -15.761719 1.703125 L -19.53125 1.703125 L -19.53125 -2.0625 Z M -22.042969 -2.0625 " fill-opacity="1" fill-rule="nonzero"/></g><g clip-path="url(#13b77f05b5)"><path fill="#000000" d="M 148.457031 142.308594 L 148.457031 110.757812 C 148.457031 108.101562 149.457031 106.109375 151.777344 104.78125 L 215.210938 68.25 C 223.84375 63.269531 234.140625 60.945312 244.765625 60.945312 C 284.617188 60.945312 309.859375 91.832031 309.859375 124.707031 C 309.859375 127.03125 309.859375 129.6875 309.527344 132.347656 L 243.769531 93.820312 C 239.785156 91.496094 235.800781 91.496094 231.8125 93.820312 Z M 296.574219 265.183594 L 296.574219 189.796875 C 296.574219 185.144531 294.578125 181.824219 290.597656 179.503906 L 207.238281 131.015625 L 234.472656 115.40625 C 236.796875 114.078125 238.789062 114.078125 241.113281 115.40625 L 304.546875 151.9375 C 322.8125 162.566406 335.097656 185.144531 335.097656 207.0625 C 335.097656 232.304688 320.15625 255.550781 296.574219 265.183594 Z M 128.863281 198.765625 L 101.632812 182.828125 C 99.308594 181.5 98.3125 179.503906 98.3125 176.847656 L 98.3125 103.789062 C 98.3125 68.253906 125.542969 41.351562 162.40625 41.351562 C 176.355469 41.351562 189.304688 46.003906 200.269531 54.304688 L 134.84375 92.164062 C 130.859375 94.488281 128.867188 97.808594 128.867188 102.460938 L 128.867188 198.769531 Z M 187.480469 232.640625 L 148.457031 210.722656 L 148.457031 164.230469 L 187.480469 142.3125 L 226.5 164.230469 L 226.5 210.722656 Z M 212.554688 333.597656 C 198.605469 333.597656 185.65625 328.949219 174.691406 320.644531 L 240.117188 282.785156 C 244.101562 280.460938 246.09375 277.140625 246.09375 272.488281 L 246.09375 176.183594 L 273.660156 192.121094 C 275.984375 193.449219 276.980469 195.441406 276.980469 198.097656 L 276.980469 271.160156 C 276.980469 306.695312 249.414062 333.597656 212.554688 333.597656 Z M 133.84375 259.542969 L 70.414062 223.011719 C 52.144531 212.382812 39.859375 189.800781 39.859375 167.882812 C 39.859375 142.3125 55.136719 119.398438 78.714844 109.765625 L 78.714844 185.484375 C 78.714844 190.132812 80.707031 193.453125 84.691406 195.777344 L 167.71875 243.929688 L 140.488281 259.542969 C 138.164062 260.867188 136.167969 260.867188 133.84375 259.542969 Z M 130.195312 314.003906 C 92.667969 314.003906 65.101562 285.777344 65.101562 250.90625 C 65.101562 248.25 65.433594 245.589844 65.765625 242.933594 L 131.1875 280.796875 C 135.171875 283.121094 139.160156 283.121094 143.144531 280.796875 L 226.5 232.644531 L 226.5 264.191406 C 226.5 266.847656 225.503906 268.84375 223.179688 270.167969 L 159.746094 306.699219 C 151.113281 311.679688 140.816406 314.003906 130.191406 314.003906 Z M 212.554688 353.523438 C 252.738281 353.523438 286.277344 324.964844 293.917969 287.101562 C 331.113281 277.472656 355.023438 242.601562 355.023438 207.066406 C 355.023438 183.820312 345.0625 161.238281 327.128906 144.964844 C 328.789062 137.992188 329.785156 131.015625 329.785156 124.042969 C 329.785156 76.554688 291.261719 41.019531 246.761719 41.019531 C 237.796875 41.019531 229.160156 42.34375 220.527344 45.335938 C 205.578125 30.722656 184.988281 21.425781 162.40625 21.425781 C 122.222656 21.425781 88.683594 49.984375 81.042969 87.84375 C 43.847656 97.476562 19.9375 132.347656 19.9375 167.878906 C 19.9375 191.128906 29.898438 213.707031 47.832031 229.980469 C 46.171875 236.957031 45.175781 243.929688 45.175781 250.902344 C 45.175781 298.390625 83.699219 333.929688 128.199219 333.929688 C 137.164062 333.929688 145.800781 332.601562 154.4375 329.609375 C 169.378906 344.222656 189.96875 353.523438 212.554688 353.523438 Z M 212.554688 353.523438 " fill-opacity="1" fill-rule="nonzero"/></g></svg>