<svg xmlns="http://www.w3.org/2000/svg" xmlns:xlink="http://www.w3.org/1999/xlink" width="500" zoomAndPan="magnify" viewBox="0 0 375 374.999991" height="500" preserveAspectRatio="xMidYMid meet" version="1.0"><defs><clipPath id="9d3aa381cd"><path d="M 0 0 L 4.148438 0 L 4.148438 7.808594 L 0 7.808594 Z M 0 0 " clip-rule="nonzero"/></clipPath><clipPath id="5a45154d3b"><path d="M 4.542969 6.199219 L 370.414062 6.199219 L 370.414062 368.449219 L 4.542969 368.449219 Z M 4.542969 6.199219 " clip-rule="nonzero"/></clipPath></defs><g clip-path="url(#9d3aa381cd)"><path fill="#000000" d="M -22.042969 -42.265625 L -22.042969 -38.496094 L -25.8125 -38.496094 L -25.8125 -35.984375 L -22.042969 -35.984375 L -22.042969 -32.214844 L -19.53125 -32.214844 L -19.53125 -35.984375 L -15.761719 -35.984375 L -15.761719 -38.496094 L -19.53125 -38.496094 L -19.53125 -42.265625 Z M -35.859375 -37.238281 L -35.859375 -32.214844 L -40.886719 -32.214844 L -40.886719 -29.703125 L -35.859375 -29.703125 L -35.859375 -24.675781 L -33.347656 -24.675781 L -33.347656 -29.703125 L -28.324219 -29.703125 L -28.324219 -32.214844 L -33.347656 -32.214844 L -33.347656 -37.238281 Z M -8.222656 -37.238281 L -8.222656 -32.214844 L -13.25 -32.214844 L -13.25 -29.703125 L -8.222656 -29.703125 L -8.222656 -24.675781 L -5.710938 -24.675781 L -5.710938 -29.703125 L -0.6875 -29.703125 L -0.6875 -32.214844 L -5.710938 -32.214844 L -5.710938 -37.238281 Z M -23.296875 -27.1875 L -23.296875 -19.652344 L -30.835938 -19.652344 L -30.835938 -14.625 L -23.296875 -14.625 L -23.296875 -7.089844 L -18.273438 -7.089844 L -18.273438 -14.625 L -10.734375 -14.625 L -10.734375 -19.652344 L -18.273438 -19.652344 L -18.273438 -27.1875 Z M -42.140625 -22.164062 L -42.140625 -18.394531 L -45.910156 -18.394531 L -45.910156 -15.882812 L -42.140625 -15.882812 L -42.140625 -12.113281 L -39.628906 -12.113281 L -39.628906 -15.882812 L -35.859375 -15.882812 L -35.859375 -18.394531 L -39.628906 -18.394531 L -39.628906 -22.164062 Z M -1.941406 -22.164062 L -1.941406 -18.394531 L -5.710938 -18.394531 L -5.710938 -15.882812 L -1.941406 -15.882812 L -1.941406 -12.113281 L 0.570312 -12.113281 L 0.570312 -15.882812 L 4.339844 -15.882812 L 4.339844 -18.394531 L 0.570312 -18.394531 L 0.570312 -22.164062 Z M -35.859375 -9.601562 L -35.859375 -4.578125 L -40.886719 -4.578125 L -40.886719 -2.0625 L -35.859375 -2.0625 L -35.859375 2.960938 L -33.347656 2.960938 L -33.347656 -2.0625 L -28.324219 -2.0625 L -28.324219 -4.578125 L -33.347656 -4.578125 L -33.347656 -9.601562 Z M -8.222656 -9.601562 L -8.222656 -4.578125 L -13.25 -4.578125 L -13.25 -2.0625 L -8.222656 -2.0625 L -8.222656 2.960938 L -5.710938 2.960938 L -5.710938 -2.0625 L -0.6875 -2.0625 L -0.6875 -4.578125 L -5.710938 -4.578125 L -5.710938 -9.601562 Z M -22.042969 -2.0625 L -22.042969 1.703125 L -25.8125 1.703125 L -25.8125 4.21875 L -22.042969 4.21875 L -22.042969 7.984375 L -19.53125 7.984375 L -19.53125 4.21875 L -15.761719 4.21875 L -15.761719 1.703125 L -19.53125 1.703125 L -19.53125 -2.0625 Z M -22.042969 -2.0625 " fill-opacity="1" fill-rule="nonzero"/></g><g clip-path="url(#5a45154d3b)"><path fill="#01a6a6" d="M 144.871094 138.15625 L 144.871094 103.707031 C 144.871094 100.808594 145.960938 98.632812 148.496094 97.183594 L 217.757812 57.296875 C 227.183594 51.855469 238.425781 49.320312 250.027344 49.320312 C 293.539062 49.320312 321.097656 83.042969 321.097656 118.9375 C 321.097656 121.476562 321.097656 124.378906 320.734375 127.28125 L 248.9375 85.214844 C 244.589844 82.679688 240.234375 82.679688 235.882812 85.214844 Z M 306.59375 272.320312 L 306.59375 190.007812 C 306.59375 184.929688 304.414062 181.304688 300.066406 178.765625 L 209.050781 125.828125 L 238.785156 108.785156 C 241.324219 107.335938 243.5 107.335938 246.039062 108.785156 L 315.296875 148.667969 C 335.242188 160.273438 348.65625 184.929688 348.65625 208.859375 C 348.65625 236.417969 332.339844 261.800781 306.59375 272.316406 Z M 123.476562 199.800781 L 93.746094 182.394531 C 91.207031 180.945312 90.117188 178.769531 90.117188 175.871094 L 90.117188 96.097656 C 90.117188 57.300781 119.851562 27.925781 160.101562 27.925781 C 175.332031 27.925781 189.472656 33.003906 201.441406 42.070312 L 130.007812 83.40625 C 125.660156 85.945312 123.480469 89.570312 123.480469 94.648438 L 123.480469 199.804688 Z M 187.476562 236.785156 L 144.871094 212.855469 L 144.871094 162.089844 L 187.476562 138.160156 L 230.082031 162.089844 L 230.082031 212.855469 Z M 214.855469 347.019531 C 199.625 347.019531 185.484375 341.941406 173.515625 332.875 L 244.949219 291.539062 C 249.300781 289 251.476562 285.375 251.476562 280.296875 L 251.476562 175.140625 L 281.574219 192.546875 C 284.109375 193.996094 285.199219 196.171875 285.199219 199.070312 L 285.199219 278.84375 C 285.199219 317.640625 255.101562 347.015625 214.855469 347.015625 Z M 128.917969 266.15625 L 59.65625 226.269531 C 39.714844 214.667969 26.296875 190.011719 26.296875 166.082031 C 26.296875 138.160156 42.976562 113.140625 68.722656 102.625 L 68.722656 185.296875 C 68.722656 190.375 70.898438 194 75.25 196.539062 L 165.902344 249.113281 L 136.167969 266.15625 C 133.632812 267.605469 131.453125 267.605469 128.917969 266.15625 Z M 124.929688 325.625 C 83.957031 325.625 53.859375 294.804688 53.859375 256.730469 C 53.859375 253.828125 54.222656 250.925781 54.582031 248.027344 L 126.015625 289.363281 C 130.367188 291.902344 134.71875 291.902344 139.070312 289.363281 L 230.082031 236.789062 L 230.082031 271.234375 C 230.082031 274.136719 228.996094 276.3125 226.457031 277.761719 L 157.199219 317.648438 C 147.769531 323.085938 136.527344 325.625 124.925781 325.625 Z M 214.855469 368.773438 C 258.730469 368.773438 295.351562 337.589844 303.695312 296.25 C 344.304688 285.734375 370.414062 247.660156 370.414062 208.863281 C 370.414062 183.480469 359.535156 158.824219 339.957031 141.058594 C 341.769531 133.441406 342.855469 125.828125 342.855469 118.214844 C 342.855469 66.363281 300.792969 27.5625 252.203125 27.5625 C 242.414062 27.5625 232.988281 29.011719 223.558594 32.277344 C 207.238281 16.320312 184.757812 6.167969 160.101562 6.167969 C 116.226562 6.167969 79.605469 37.351562 71.261719 78.6875 C 30.652344 89.207031 4.542969 127.28125 4.542969 166.078125 C 4.542969 191.460938 15.421875 216.117188 35.003906 233.882812 C 33.191406 241.5 32.101562 249.113281 32.101562 256.726562 C 32.101562 308.578125 74.164062 347.378906 122.753906 347.378906 C 132.542969 347.378906 141.96875 345.929688 151.398438 342.664062 C 167.714844 358.621094 190.195312 368.773438 214.855469 368.773438 Z M 214.855469 368.773438 " fill-opacity="1" fill-rule="nonzero"/></g></svg>