<svg xmlns="http://www.w3.org/2000/svg" xmlns:xlink="http://www.w3.org/1999/xlink" width="500" zoomAndPan="magnify" viewBox="0 0 375 374.999991" height="500" preserveAspectRatio="xMidYMid meet" version="1.0"><defs><clipPath id="04bf400549"><path d="M 50.742188 18.492188 L 324.492188 18.492188 L 324.492188 356.183594 L 50.742188 356.183594 Z M 50.742188 18.492188 " clip-rule="nonzero"/></clipPath><clipPath id="f59ca6b1fd"><path d="M 0 0 L 4.148438 0 L 4.148438 7.808594 L 0 7.808594 Z M 0 0 " clip-rule="nonzero"/></clipPath></defs><path fill="#545454" d="M 207.722656 27.324219 L 295.261719 27.324219 C 307.6875 27.324219 317.820312 37.457031 317.820312 49.878906 L 317.820312 327.273438 C 317.820312 339.699219 307.6875 349.832031 295.261719 349.832031 L 251.492188 349.832031 L 185.164062 286.175781 L 185.164062 49.878906 C 185.167969 37.457031 195.300781 27.324219 207.722656 27.324219 Z M 207.722656 27.324219 " fill-opacity="1" fill-rule="evenodd"/><g clip-path="url(#04bf400549)"><path fill="#ffffff" d="M 324.226562 -3.292969 C 324.226562 0.242188 321.359375 3.113281 317.820312 3.113281 C 314.28125 3.113281 311.414062 0.242188 311.414062 -3.292969 L 311.414062 -36.230469 C 311.414062 -45.867188 303.539062 -53.742188 293.902344 -53.742188 L -11.039062 -53.742188 C -20.675781 -53.742188 -28.550781 -45.867188 -28.550781 -36.230469 L -28.550781 325.914062 C -28.550781 335.550781 -20.675781 343.425781 -11.039062 343.425781 L 21.894531 343.425781 C 25.433594 343.425781 28.300781 346.292969 28.300781 349.832031 C 28.300781 353.371094 25.433594 356.238281 21.894531 356.238281 L -11.039062 356.238281 C -27.75 356.238281 -41.363281 342.625 -41.363281 325.914062 L -41.363281 -36.230469 C -41.363281 -52.941406 -27.75 -66.554688 -11.039062 -66.554688 L 293.902344 -66.554688 C 310.613281 -66.554688 324.226562 -52.941406 324.226562 -36.230469 Z M 324.226562 -3.292969 " fill-opacity="1" fill-rule="evenodd"/></g><path fill="#737373" d="M 141.398438 102.21875 L 228.9375 102.21875 C 241.359375 102.21875 251.492188 112.351562 251.492188 124.777344 L 251.492188 349.832031 L 185.167969 349.832031 L 118.839844 306.652344 L 118.839844 124.777344 C 118.839844 112.351562 128.972656 102.21875 141.398438 102.21875 Z M 141.398438 102.21875 " fill-opacity="1" fill-rule="evenodd"/><path fill="#a6a6a6" d="M 75.070312 177.117188 L 162.609375 177.117188 C 175.03125 177.117188 185.167969 187.25 185.167969 199.671875 L 185.167969 349.832031 L 75.070312 349.832031 C 62.648438 349.832031 52.515625 339.699219 52.515625 327.273438 L 52.515625 199.671875 C 52.515625 187.25 62.648438 177.117188 75.070312 177.117188 Z M 75.070312 177.117188 " fill-opacity="1" fill-rule="evenodd"/><g clip-path="url(#f59ca6b1fd)"><path fill="#000000" d="M -22.042969 -42.265625 L -22.042969 -38.496094 L -25.8125 -38.496094 L -25.8125 -35.984375 L -22.042969 -35.984375 L -22.042969 -32.214844 L -19.53125 -32.214844 L -19.53125 -35.984375 L -15.761719 -35.984375 L -15.761719 -38.496094 L -19.53125 -38.496094 L -19.53125 -42.265625 Z M -35.859375 -37.238281 L -35.859375 -32.214844 L -40.886719 -32.214844 L -40.886719 -29.703125 L -35.859375 -29.703125 L -35.859375 -24.675781 L -33.347656 -24.675781 L -33.347656 -29.703125 L -28.324219 -29.703125 L -28.324219 -32.214844 L -33.347656 -32.214844 L -33.347656 -37.238281 Z M -8.222656 -37.238281 L -8.222656 -32.214844 L -13.25 -32.214844 L -13.25 -29.703125 L -8.222656 -29.703125 L -8.222656 -24.675781 L -5.710938 -24.675781 L -5.710938 -29.703125 L -0.6875 -29.703125 L -0.6875 -32.214844 L -5.710938 -32.214844 L -5.710938 -37.238281 Z M -23.296875 -27.1875 L -23.296875 -19.652344 L -30.835938 -19.652344 L -30.835938 -14.625 L -23.296875 -14.625 L -23.296875 -7.089844 L -18.273438 -7.089844 L -18.273438 -14.625 L -10.734375 -14.625 L -10.734375 -19.652344 L -18.273438 -19.652344 L -18.273438 -27.1875 Z M -42.140625 -22.164062 L -42.140625 -18.394531 L -45.910156 -18.394531 L -45.910156 -15.882812 L -42.140625 -15.882812 L -42.140625 -12.113281 L -39.628906 -12.113281 L -39.628906 -15.882812 L -35.859375 -15.882812 L -35.859375 -18.394531 L -39.628906 -18.394531 L -39.628906 -22.164062 Z M -1.941406 -22.164062 L -1.941406 -18.394531 L -5.710938 -18.394531 L -5.710938 -15.882812 L -1.941406 -15.882812 L -1.941406 -12.113281 L 0.570312 -12.113281 L 0.570312 -15.882812 L 4.339844 -15.882812 L 4.339844 -18.394531 L 0.570312 -18.394531 L 0.570312 -22.164062 Z M -35.859375 -9.601562 L -35.859375 -4.578125 L -40.886719 -4.578125 L -40.886719 -2.0625 L -35.859375 -2.0625 L -35.859375 2.960938 L -33.347656 2.960938 L -33.347656 -2.0625 L -28.324219 -2.0625 L -28.324219 -4.578125 L -33.347656 -4.578125 L -33.347656 -9.601562 Z M -8.222656 -9.601562 L -8.222656 -4.578125 L -13.25 -4.578125 L -13.25 -2.0625 L -8.222656 -2.0625 L -8.222656 2.960938 L -5.710938 2.960938 L -5.710938 -2.0625 L -0.6875 -2.0625 L -0.6875 -4.578125 L -5.710938 -4.578125 L -5.710938 -9.601562 Z M -22.042969 -2.0625 L -22.042969 1.703125 L -25.8125 1.703125 L -25.8125 4.21875 L -22.042969 4.21875 L -22.042969 7.984375 L -19.53125 7.984375 L -19.53125 4.21875 L -15.761719 4.21875 L -15.761719 1.703125 L -19.53125 1.703125 L -19.53125 -2.0625 Z M -22.042969 -2.0625 " fill-opacity="1" fill-rule="nonzero"/></g></svg>