<svg xmlns="http://www.w3.org/2000/svg" xmlns:xlink="http://www.w3.org/1999/xlink" width="500" zoomAndPan="magnify" viewBox="0 0 375 374.999991" height="500" preserveAspectRatio="xMidYMid meet" version="1.0"><defs><clipPath id="dded15e329"><path d="M 0 0 L 4.148438 0 L 4.148438 7.808594 L 0 7.808594 Z M 0 0 " clip-rule="nonzero"/></clipPath><clipPath id="1dc04a48c3"><path d="M 37.5 7.066406 L 336.660156 7.066406 L 336.660156 367.816406 L 37.5 367.816406 Z M 37.5 7.066406 " clip-rule="nonzero"/></clipPath></defs><g clip-path="url(#dded15e329)"><path fill="#000000" d="M -22.042969 -42.265625 L -22.042969 -38.496094 L -25.8125 -38.496094 L -25.8125 -35.984375 L -22.042969 -35.984375 L -22.042969 -32.214844 L -19.53125 -32.214844 L -19.53125 -35.984375 L -15.761719 -35.984375 L -15.761719 -38.496094 L -19.53125 -38.496094 L -19.53125 -42.265625 Z M -35.859375 -37.238281 L -35.859375 -32.214844 L -40.886719 -32.214844 L -40.886719 -29.703125 L -35.859375 -29.703125 L -35.859375 -24.675781 L -33.347656 -24.675781 L -33.347656 -29.703125 L -28.324219 -29.703125 L -28.324219 -32.214844 L -33.347656 -32.214844 L -33.347656 -37.238281 Z M -8.222656 -37.238281 L -8.222656 -32.214844 L -13.25 -32.214844 L -13.25 -29.703125 L -8.222656 -29.703125 L -8.222656 -24.675781 L -5.710938 -24.675781 L -5.710938 -29.703125 L -0.6875 -29.703125 L -0.6875 -32.214844 L -5.710938 -32.214844 L -5.710938 -37.238281 Z M -23.296875 -27.1875 L -23.296875 -19.652344 L -30.835938 -19.652344 L -30.835938 -14.625 L -23.296875 -14.625 L -23.296875 -7.089844 L -18.273438 -7.089844 L -18.273438 -14.625 L -10.734375 -14.625 L -10.734375 -19.652344 L -18.273438 -19.652344 L -18.273438 -27.1875 Z M -42.140625 -22.164062 L -42.140625 -18.394531 L -45.910156 -18.394531 L -45.910156 -15.882812 L -42.140625 -15.882812 L -42.140625 -12.113281 L -39.628906 -12.113281 L -39.628906 -15.882812 L -35.859375 -15.882812 L -35.859375 -18.394531 L -39.628906 -18.394531 L -39.628906 -22.164062 Z M -1.941406 -22.164062 L -1.941406 -18.394531 L -5.710938 -18.394531 L -5.710938 -15.882812 L -1.941406 -15.882812 L -1.941406 -12.113281 L 0.570312 -12.113281 L 0.570312 -15.882812 L 4.339844 -15.882812 L 4.339844 -18.394531 L 0.570312 -18.394531 L 0.570312 -22.164062 Z M -35.859375 -9.601562 L -35.859375 -4.578125 L -40.886719 -4.578125 L -40.886719 -2.0625 L -35.859375 -2.0625 L -35.859375 2.960938 L -33.347656 2.960938 L -33.347656 -2.0625 L -28.324219 -2.0625 L -28.324219 -4.578125 L -33.347656 -4.578125 L -33.347656 -9.601562 Z M -8.222656 -9.601562 L -8.222656 -4.578125 L -13.25 -4.578125 L -13.25 -2.0625 L -8.222656 -2.0625 L -8.222656 2.960938 L -5.710938 2.960938 L -5.710938 -2.0625 L -0.6875 -2.0625 L -0.6875 -4.578125 L -5.710938 -4.578125 L -5.710938 -9.601562 Z M -22.042969 -2.0625 L -22.042969 1.703125 L -25.8125 1.703125 L -25.8125 4.21875 L -22.042969 4.21875 L -22.042969 7.984375 L -19.53125 7.984375 L -19.53125 4.21875 L -15.761719 4.21875 L -15.761719 1.703125 L -19.53125 1.703125 L -19.53125 -2.0625 Z M -22.042969 -2.0625 " fill-opacity="1" fill-rule="nonzero"/></g><path fill="#906b18" d="M 212.265625 15.964844 L 305.863281 15.964844 C 319.148438 15.964844 329.984375 26.796875 329.984375 40.082031 L 329.984375 336.679688 C 329.984375 349.964844 319.148438 360.800781 305.863281 360.800781 L 259.066406 360.800781 L 188.148438 292.734375 L 188.148438 40.082031 C 188.148438 26.796875 198.980469 15.964844 212.265625 15.964844 Z M 212.265625 15.964844 " fill-opacity="1" fill-rule="evenodd"/><g clip-path="url(#1dc04a48c3)"><path fill="#4187b5" d="M 336.832031 -16.773438 C 336.832031 -12.992188 333.765625 -9.925781 329.984375 -9.925781 C 326.199219 -9.925781 323.132812 -12.992188 323.132812 -16.773438 L 323.132812 -51.988281 C 323.132812 -62.292969 314.714844 -70.710938 304.410156 -70.710938 L -21.640625 -70.710938 C -31.945312 -70.710938 -40.363281 -62.292969 -40.363281 -51.988281 L -40.363281 335.226562 C -40.363281 345.53125 -31.945312 353.949219 -21.640625 353.949219 L 13.574219 353.949219 C 17.355469 353.949219 20.421875 357.015625 20.421875 360.800781 C 20.421875 364.582031 17.355469 367.648438 13.574219 367.648438 L -21.640625 367.648438 C -39.507812 367.648438 -54.066406 353.09375 -54.066406 335.226562 L -54.066406 -51.988281 C -54.066406 -69.855469 -39.507812 -84.414062 -21.640625 -84.414062 L 304.410156 -84.414062 C 322.277344 -84.414062 336.832031 -69.855469 336.832031 -51.988281 Z M 336.832031 -16.773438 " fill-opacity="1" fill-rule="evenodd"/></g><path fill="#ffbf31" d="M 141.347656 96.042969 L 234.945312 96.042969 C 248.230469 96.042969 259.066406 106.878906 259.066406 120.164062 L 259.066406 360.800781 L 188.148438 360.800781 L 117.230469 314.628906 L 117.230469 120.164062 C 117.230469 106.878906 128.0625 96.042969 141.347656 96.042969 Z M 141.347656 96.042969 " fill-opacity="1" fill-rule="evenodd"/><path fill="#ffdb8a" d="M 70.429688 176.125 L 164.027344 176.125 C 177.3125 176.125 188.148438 186.960938 188.148438 200.246094 L 188.148438 360.800781 L 70.429688 360.800781 C 57.144531 360.800781 46.3125 349.964844 46.3125 336.679688 L 46.3125 200.242188 C 46.3125 186.960938 57.144531 176.125 70.429688 176.125 Z M 70.429688 176.125 " fill-opacity="1" fill-rule="evenodd"/></svg>