<svg xmlns="http://www.w3.org/2000/svg" xmlns:xlink="http://www.w3.org/1999/xlink" width="500" zoomAndPan="magnify" viewBox="0 0 375 374.999991" height="500" preserveAspectRatio="xMidYMid meet" version="1.0"><defs><clipPath id="256cd83498"><path d="M 0 0 L 4.148438 0 L 4.148438 7.808594 L 0 7.808594 Z M 0 0 " clip-rule="nonzero"/></clipPath><clipPath id="efe1a5af46"><path d="M 10.851562 34 L 364.101562 34 L 364.101562 341 L 10.851562 341 Z M 10.851562 34 " clip-rule="nonzero"/></clipPath></defs><g clip-path="url(#256cd83498)"><path fill="#000000" d="M -22.042969 -42.265625 L -22.042969 -38.496094 L -25.8125 -38.496094 L -25.8125 -35.984375 L -22.042969 -35.984375 L -22.042969 -32.214844 L -19.53125 -32.214844 L -19.53125 -35.984375 L -15.761719 -35.984375 L -15.761719 -38.496094 L -19.53125 -38.496094 L -19.53125 -42.265625 Z M -35.859375 -37.238281 L -35.859375 -32.214844 L -40.886719 -32.214844 L -40.886719 -29.703125 L -35.859375 -29.703125 L -35.859375 -24.675781 L -33.347656 -24.675781 L -33.347656 -29.703125 L -28.324219 -29.703125 L -28.324219 -32.214844 L -33.347656 -32.214844 L -33.347656 -37.238281 Z M -8.222656 -37.238281 L -8.222656 -32.214844 L -13.25 -32.214844 L -13.25 -29.703125 L -8.222656 -29.703125 L -8.222656 -24.675781 L -5.710938 -24.675781 L -5.710938 -29.703125 L -0.6875 -29.703125 L -0.6875 -32.214844 L -5.710938 -32.214844 L -5.710938 -37.238281 Z M -23.296875 -27.1875 L -23.296875 -19.652344 L -30.835938 -19.652344 L -30.835938 -14.625 L -23.296875 -14.625 L -23.296875 -7.089844 L -18.273438 -7.089844 L -18.273438 -14.625 L -10.734375 -14.625 L -10.734375 -19.652344 L -18.273438 -19.652344 L -18.273438 -27.1875 Z M -42.140625 -22.164062 L -42.140625 -18.394531 L -45.910156 -18.394531 L -45.910156 -15.882812 L -42.140625 -15.882812 L -42.140625 -12.113281 L -39.628906 -12.113281 L -39.628906 -15.882812 L -35.859375 -15.882812 L -35.859375 -18.394531 L -39.628906 -18.394531 L -39.628906 -22.164062 Z M -1.941406 -22.164062 L -1.941406 -18.394531 L -5.710938 -18.394531 L -5.710938 -15.882812 L -1.941406 -15.882812 L -1.941406 -12.113281 L 0.570312 -12.113281 L 0.570312 -15.882812 L 4.339844 -15.882812 L 4.339844 -18.394531 L 0.570312 -18.394531 L 0.570312 -22.164062 Z M -35.859375 -9.601562 L -35.859375 -4.578125 L -40.886719 -4.578125 L -40.886719 -2.0625 L -35.859375 -2.0625 L -35.859375 2.960938 L -33.347656 2.960938 L -33.347656 -2.0625 L -28.324219 -2.0625 L -28.324219 -4.578125 L -33.347656 -4.578125 L -33.347656 -9.601562 Z M -8.222656 -9.601562 L -8.222656 -4.578125 L -13.25 -4.578125 L -13.25 -2.0625 L -8.222656 -2.0625 L -8.222656 2.960938 L -5.710938 2.960938 L -5.710938 -2.0625 L -0.6875 -2.0625 L -0.6875 -4.578125 L -5.710938 -4.578125 L -5.710938 -9.601562 Z M -22.042969 -2.0625 L -22.042969 1.703125 L -25.8125 1.703125 L -25.8125 4.21875 L -22.042969 4.21875 L -22.042969 7.984375 L -19.53125 7.984375 L -19.53125 4.21875 L -15.761719 4.21875 L -15.761719 1.703125 L -19.53125 1.703125 L -19.53125 -2.0625 Z M -22.042969 -2.0625 " fill-opacity="1" fill-rule="nonzero"/></g><path fill="#53c1de" d="M 219.019531 187.269531 C 219.019531 170.371094 204.898438 156.671875 187.476562 156.671875 C 170.054688 156.671875 155.933594 170.371094 155.933594 187.269531 C 155.933594 204.171875 170.054688 217.871094 187.476562 217.871094 C 204.898438 217.871094 219.019531 204.171875 219.019531 187.269531 Z M 219.019531 187.269531 " fill-opacity="1" fill-rule="nonzero"/><g clip-path="url(#efe1a5af46)"><path fill="#53c1de" d="M 289.921875 130.460938 C 296.585938 104.203125 304.957031 55.507812 275.441406 39 C 246.0625 22.566406 207.828125 54.058594 187.640625 72.964844 C 167.511719 54.25 128.203125 22.886719 98.710938 39.449219 C 69.34375 55.941406 78.402344 103.828125 85.210938 130.25 C 57.8125 137.796875 10.851562 154.054688 10.851562 187.269531 C 10.851562 220.390625 57.765625 238.078125 85 245.621094 C 78.164062 272.191406 69.5625 319.390625 98.96875 335.847656 C 128.570312 352.40625 167.753906 321.789062 188.128906 302.679688 C 208.445312 321.695312 246.3125 352.507812 275.695312 336.007812 C 305.175781 319.457031 297.496094 271.414062 290.6875 244.839844 C 317.085938 237.28125 364.101562 219.980469 364.101562 187.269531 C 364.101562 154.375 316.886719 137.984375 289.921875 130.460938 Z M 286.578125 230.753906 C 282.105469 217.023438 276.070312 202.425781 268.691406 187.34375 C 275.734375 172.617188 281.535156 158.207031 285.882812 144.566406 C 305.648438 150.125 349.011719 162.832031 349.011719 187.269531 C 349.011719 211.941406 307.398438 224.765625 286.578125 230.753906 Z M 268.136719 323.339844 C 246.210938 335.648438 213.640625 306.183594 198.636719 292.179688 C 208.589844 281.617188 218.539062 269.339844 228.246094 255.703125 C 245.324219 254.234375 261.457031 251.832031 276.089844 248.550781 C 280.882812 267.351562 290.15625 310.972656 268.136719 323.339844 Z M 106.507812 323.164062 C 84.578125 310.898438 94.601562 268.777344 99.628906 249.207031 C 114.097656 252.3125 130.117188 254.546875 147.234375 255.890625 C 157.007812 269.234375 167.242188 281.496094 177.558594 292.234375 C 164.8125 304.191406 128.535156 335.484375 106.507812 323.164062 Z M 25.941406 187.269531 C 25.941406 162.507812 69.042969 149.894531 89.261719 144.351562 C 93.683594 158.296875 99.480469 172.878906 106.480469 187.628906 C 99.390625 202.59375 93.507812 217.40625 89.046875 231.519531 C 69.769531 226.167969 25.941406 212.046875 25.941406 187.269531 Z M 106.273438 52.117188 C 128.289062 39.753906 162.449219 69.863281 177.066406 83.414062 C 166.804688 94.105469 156.664062 106.273438 146.972656 119.539062 C 130.359375 121.03125 114.457031 123.429688 99.835938 126.644531 C 94.351562 105.332031 84.28125 64.464844 106.273438 52.117188 Z M 239.042969 135.449219 C 250.3125 136.828125 261.113281 138.664062 271.253906 140.910156 C 268.207031 150.375 264.414062 160.269531 259.945312 170.417969 C 253.46875 158.496094 246.515625 146.8125 239.042969 135.449219 Z M 187.644531 93.875 C 194.605469 101.1875 201.574219 109.355469 208.433594 118.21875 C 194.523438 117.582031 180.589844 117.578125 166.683594 118.210938 C 173.546875 109.429688 180.578125 101.273438 187.644531 93.875 Z M 115.136719 170.40625 C 110.742188 160.296875 106.980469 150.355469 103.910156 140.753906 C 113.992188 138.566406 124.738281 136.78125 135.9375 135.421875 C 128.445312 146.761719 121.503906 158.4375 115.136719 170.40625 Z M 136.257812 240.164062 C 124.691406 238.910156 113.78125 237.214844 103.703125 235.085938 C 106.824219 225.316406 110.664062 215.164062 115.152344 204.835938 C 121.605469 216.925781 128.65625 228.71875 136.257812 240.164062 Z M 188.0625 281.699219 C 180.910156 274.214844 173.777344 265.933594 166.808594 257.027344 C 180.796875 257.558594 194.8125 257.558594 208.800781 256.953125 C 201.921875 266.023438 194.976562 274.316406 188.0625 281.699219 Z M 260.089844 204.308594 C 264.8125 214.75 268.792969 224.847656 271.953125 234.453125 C 261.710938 236.71875 250.652344 238.546875 239 239.902344 C 246.527344 228.324219 253.59375 216.460938 260.089844 204.308594 Z M 219.824219 241.675781 C 198.429688 243.160156 176.898438 243.144531 155.492188 241.796875 C 143.332031 224.5625 132.503906 206.4375 123.15625 187.621094 C 132.457031 168.84375 143.207031 150.757812 155.3125 133.550781 C 176.730469 131.980469 198.285156 131.972656 219.703125 133.558594 C 231.703125 150.765625 242.4375 168.804688 251.953125 187.414062 C 242.550781 206.183594 231.746094 224.308594 219.824219 241.675781 Z M 267.902344 51.683594 C 289.925781 64.003906 280.125 107.765625 275.3125 126.796875 C 260.65625 123.515625 244.742188 121.074219 228.082031 119.558594 C 218.371094 106.148438 208.316406 93.957031 198.21875 83.40625 C 213.023438 69.5625 246.09375 39.480469 267.902344 51.683594 Z M 267.902344 51.683594 " fill-opacity="1" fill-rule="evenodd"/></g></svg>