<svg xmlns="http://www.w3.org/2000/svg" xmlns:xlink="http://www.w3.org/1999/xlink" width="500" zoomAndPan="magnify" viewBox="0 0 375 374.999991" height="500" preserveAspectRatio="xMidYMid meet" version="1.0"><defs><clipPath id="87518767cc"><path d="M 0 0 L 4.148438 0 L 4.148438 7.808594 L 0 7.808594 Z M 0 0 " clip-rule="nonzero"/></clipPath><clipPath id="0e0c0ffb66"><path d="M 152 10.085938 L 224 10.085938 L 224 87 L 152 87 Z M 152 10.085938 " clip-rule="nonzero"/></clipPath><clipPath id="b6a29841d3"><path d="M 293 146 L 368.714844 146 L 368.714844 228 L 293 228 Z M 293 146 " clip-rule="nonzero"/></clipPath><clipPath id="149d6a3ed5"><path d="M 6.464844 148 L 78 148 L 78 225 L 6.464844 225 Z M 6.464844 148 " clip-rule="nonzero"/></clipPath><clipPath id="dc853abe0d"><path d="M 150 284 L 226 284 L 226 364.835938 L 150 364.835938 Z M 150 284 " clip-rule="nonzero"/></clipPath></defs><g clip-path="url(#87518767cc)"><path fill="#000000" d="M -22.042969 -42.265625 L -22.042969 -38.496094 L -25.8125 -38.496094 L -25.8125 -35.984375 L -22.042969 -35.984375 L -22.042969 -32.214844 L -19.53125 -32.214844 L -19.53125 -35.984375 L -15.761719 -35.984375 L -15.761719 -38.496094 L -19.53125 -38.496094 L -19.53125 -42.265625 Z M -35.859375 -37.238281 L -35.859375 -32.214844 L -40.886719 -32.214844 L -40.886719 -29.703125 L -35.859375 -29.703125 L -35.859375 -24.675781 L -33.347656 -24.675781 L -33.347656 -29.703125 L -28.324219 -29.703125 L -28.324219 -32.214844 L -33.347656 -32.214844 L -33.347656 -37.238281 Z M -8.222656 -37.238281 L -8.222656 -32.214844 L -13.25 -32.214844 L -13.25 -29.703125 L -8.222656 -29.703125 L -8.222656 -24.675781 L -5.710938 -24.675781 L -5.710938 -29.703125 L -0.6875 -29.703125 L -0.6875 -32.214844 L -5.710938 -32.214844 L -5.710938 -37.238281 Z M -23.296875 -27.1875 L -23.296875 -19.652344 L -30.835938 -19.652344 L -30.835938 -14.625 L -23.296875 -14.625 L -23.296875 -7.089844 L -18.273438 -7.089844 L -18.273438 -14.625 L -10.734375 -14.625 L -10.734375 -19.652344 L -18.273438 -19.652344 L -18.273438 -27.1875 Z M -42.140625 -22.164062 L -42.140625 -18.394531 L -45.910156 -18.394531 L -45.910156 -15.882812 L -42.140625 -15.882812 L -42.140625 -12.113281 L -39.628906 -12.113281 L -39.628906 -15.882812 L -35.859375 -15.882812 L -35.859375 -18.394531 L -39.628906 -18.394531 L -39.628906 -22.164062 Z M -1.941406 -22.164062 L -1.941406 -18.394531 L -5.710938 -18.394531 L -5.710938 -15.882812 L -1.941406 -15.882812 L -1.941406 -12.113281 L 0.570312 -12.113281 L 0.570312 -15.882812 L 4.339844 -15.882812 L 4.339844 -18.394531 L 0.570312 -18.394531 L 0.570312 -22.164062 Z M -35.859375 -9.601562 L -35.859375 -4.578125 L -40.886719 -4.578125 L -40.886719 -2.0625 L -35.859375 -2.0625 L -35.859375 2.960938 L -33.347656 2.960938 L -33.347656 -2.0625 L -28.324219 -2.0625 L -28.324219 -4.578125 L -33.347656 -4.578125 L -33.347656 -9.601562 Z M -8.222656 -9.601562 L -8.222656 -4.578125 L -13.25 -4.578125 L -13.25 -2.0625 L -8.222656 -2.0625 L -8.222656 2.960938 L -5.710938 2.960938 L -5.710938 -2.0625 L -0.6875 -2.0625 L -0.6875 -4.578125 L -5.710938 -4.578125 L -5.710938 -9.601562 Z M -22.042969 -2.0625 L -22.042969 1.703125 L -25.8125 1.703125 L -25.8125 4.21875 L -22.042969 4.21875 L -22.042969 7.984375 L -19.53125 7.984375 L -19.53125 4.21875 L -15.761719 4.21875 L -15.761719 1.703125 L -19.53125 1.703125 L -19.53125 -2.0625 Z M -22.042969 -2.0625 " fill-opacity="1" fill-rule="nonzero"/></g><g clip-path="url(#0e0c0ffb66)"><path fill="#7099a6" d="M 181.828125 26.535156 L 181.828125 42.996094 L 152.367188 42.996094 L 152.367188 53.699219 L 181.828125 53.699219 L 181.828125 86.488281 L 193.347656 86.488281 L 193.347656 53.699219 L 223.546875 53.699219 L 223.546875 42.996094 L 193.347656 42.996094 L 193.347656 10.140625 L 181.828125 10.140625 Z M 181.828125 26.535156 " fill-opacity="1" fill-rule="nonzero"/></g><path fill="#eb912c" d="M 85.542969 68.289062 L 85.542969 92.175781 L 40.949219 92.175781 L 40.949219 107.164062 L 85.542969 107.164062 L 85.542969 155.671875 L 102.082031 155.671875 L 102.082031 107.164062 L 147.347656 107.164062 L 147.347656 92.175781 L 102.082031 92.175781 L 102.082031 44.398438 L 85.542969 44.398438 Z M 85.542969 68.289062 " fill-opacity="1" fill-rule="nonzero"/><path fill="#59879b" d="M 272.425781 68.289062 L 272.425781 92.175781 L 227.832031 92.175781 L 227.832031 107.898438 L 272.425781 107.898438 L 272.425781 155.671875 L 289.632812 155.671875 L 289.632812 107.898438 L 334.226562 107.898438 L 334.226562 92.175781 L 289.632812 92.175781 L 289.632812 44.398438 L 272.425781 44.398438 Z M 272.425781 68.289062 " fill-opacity="1" fill-rule="nonzero"/><path fill="#e8762c" d="M 177.542969 149.652344 L 177.542969 176.414062 L 127.929688 176.414062 L 127.929688 196.355469 L 177.542969 196.355469 L 177.542969 249.882812 L 197.632812 249.882812 L 197.632812 196.355469 L 247.25 196.355469 L 247.25 176.414062 L 197.632812 176.414062 L 197.632812 122.886719 L 177.542969 122.886719 Z M 177.542969 149.652344 " fill-opacity="1" fill-rule="nonzero"/><g clip-path="url(#b6a29841d3)"><path fill="#5b6591" d="M 323.449219 163.167969 L 323.449219 179.960938 L 293.25 179.960938 L 293.25 193.542969 L 323.449219 193.542969 L 323.449219 227.066406 L 338.511719 227.066406 L 338.511719 193.542969 L 368.710938 193.542969 L 368.710938 179.960938 L 338.511719 179.960938 L 338.511719 146.4375 L 323.449219 146.4375 Z M 323.449219 163.167969 " fill-opacity="1" fill-rule="nonzero"/></g><g clip-path="url(#149d6a3ed5)"><path fill="#7099a6" d="M 35.925781 164.640625 L 35.925781 180.699219 L 6.464844 180.699219 L 6.464844 192.074219 L 35.925781 192.074219 L 35.925781 224.191406 L 47.445312 224.191406 L 47.445312 192.074219 L 77.640625 191 L 77.640625 180.699219 L 47.445312 180.699219 L 47.445312 148.582031 L 35.925781 148.582031 Z M 35.925781 164.640625 " fill-opacity="1" fill-rule="nonzero"/></g><path fill="#c72035" d="M 85.542969 240.25 L 85.542969 264.136719 L 40.949219 264.136719 L 40.949219 279.859375 L 85.542969 279.859375 L 85.542969 327.632812 L 102.75 327.632812 L 102.75 279.859375 L 147.347656 279.859375 L 147.347656 264.136719 L 102.75 264.136719 L 102.75 216.359375 L 85.542969 216.359375 Z M 85.542969 240.25 " fill-opacity="1" fill-rule="nonzero"/><path fill="#1f447e" d="M 272.425781 240.25 L 272.425781 264.136719 L 227.832031 264.136719 L 227.832031 279.125 L 272.425781 279.125 L 272.425781 327.632812 L 289.632812 327.632812 L 289.632812 279.125 L 334.226562 279.125 L 334.226562 264.136719 L 289.632812 264.136719 L 289.632812 216.359375 L 272.425781 216.359375 Z M 272.425781 240.25 " fill-opacity="1" fill-rule="nonzero"/><g clip-path="url(#dc853abe0d)"><path fill="#5b6591" d="M 180.425781 300.9375 L 180.425781 317.664062 L 150.226562 317.664062 L 150.226562 331.246094 L 180.425781 331.246094 L 180.425781 364.769531 L 195.488281 364.769531 L 195.488281 331.246094 L 225.6875 331.246094 L 225.6875 317.664062 L 195.488281 317.664062 L 195.488281 284.140625 L 180.425781 284.140625 Z M 180.425781 300.9375 " fill-opacity="1" fill-rule="nonzero"/></g></svg>