<svg xmlns="http://www.w3.org/2000/svg" xmlns:xlink="http://www.w3.org/1999/xlink" width="500" zoomAndPan="magnify" viewBox="0 0 375 374.999991" height="500" preserveAspectRatio="xMidYMid meet" version="1.0"><defs><clipPath id="b4b8c81469"><path d="M 0 0 L 4.148438 0 L 4.148438 7.808594 L 0 7.808594 Z M 0 0 " clip-rule="nonzero"/></clipPath><clipPath id="e3fa27423b"><path d="M 15.550781 15.550781 L 359.800781 15.550781 L 359.800781 359.800781 L 15.550781 359.800781 Z M 15.550781 15.550781 " clip-rule="nonzero"/></clipPath></defs><g clip-path="url(#b4b8c81469)"><path fill="#000000" d="M -22.042969 -42.265625 L -22.042969 -38.496094 L -25.8125 -38.496094 L -25.8125 -35.984375 L -22.042969 -35.984375 L -22.042969 -32.214844 L -19.53125 -32.214844 L -19.53125 -35.984375 L -15.761719 -35.984375 L -15.761719 -38.496094 L -19.53125 -38.496094 L -19.53125 -42.265625 Z M -35.859375 -37.238281 L -35.859375 -32.214844 L -40.886719 -32.214844 L -40.886719 -29.703125 L -35.859375 -29.703125 L -35.859375 -24.675781 L -33.347656 -24.675781 L -33.347656 -29.703125 L -28.324219 -29.703125 L -28.324219 -32.214844 L -33.347656 -32.214844 L -33.347656 -37.238281 Z M -8.222656 -37.238281 L -8.222656 -32.214844 L -13.25 -32.214844 L -13.25 -29.703125 L -8.222656 -29.703125 L -8.222656 -24.675781 L -5.710938 -24.675781 L -5.710938 -29.703125 L -0.6875 -29.703125 L -0.6875 -32.214844 L -5.710938 -32.214844 L -5.710938 -37.238281 Z M -23.296875 -27.1875 L -23.296875 -19.652344 L -30.835938 -19.652344 L -30.835938 -14.625 L -23.296875 -14.625 L -23.296875 -7.089844 L -18.273438 -7.089844 L -18.273438 -14.625 L -10.734375 -14.625 L -10.734375 -19.652344 L -18.273438 -19.652344 L -18.273438 -27.1875 Z M -42.140625 -22.164062 L -42.140625 -18.394531 L -45.910156 -18.394531 L -45.910156 -15.882812 L -42.140625 -15.882812 L -42.140625 -12.113281 L -39.628906 -12.113281 L -39.628906 -15.882812 L -35.859375 -15.882812 L -35.859375 -18.394531 L -39.628906 -18.394531 L -39.628906 -22.164062 Z M -1.941406 -22.164062 L -1.941406 -18.394531 L -5.710938 -18.394531 L -5.710938 -15.882812 L -1.941406 -15.882812 L -1.941406 -12.113281 L 0.570312 -12.113281 L 0.570312 -15.882812 L 4.339844 -15.882812 L 4.339844 -18.394531 L 0.570312 -18.394531 L 0.570312 -22.164062 Z M -35.859375 -9.601562 L -35.859375 -4.578125 L -40.886719 -4.578125 L -40.886719 -2.0625 L -35.859375 -2.0625 L -35.859375 2.960938 L -33.347656 2.960938 L -33.347656 -2.0625 L -28.324219 -2.0625 L -28.324219 -4.578125 L -33.347656 -4.578125 L -33.347656 -9.601562 Z M -8.222656 -9.601562 L -8.222656 -4.578125 L -13.25 -4.578125 L -13.25 -2.0625 L -8.222656 -2.0625 L -8.222656 2.960938 L -5.710938 2.960938 L -5.710938 -2.0625 L -0.6875 -2.0625 L -0.6875 -4.578125 L -5.710938 -4.578125 L -5.710938 -9.601562 Z M -22.042969 -2.0625 L -22.042969 1.703125 L -25.8125 1.703125 L -25.8125 4.21875 L -22.042969 4.21875 L -22.042969 7.984375 L -19.53125 7.984375 L -19.53125 4.21875 L -15.761719 4.21875 L -15.761719 1.703125 L -19.53125 1.703125 L -19.53125 -2.0625 Z M -22.042969 -2.0625 " fill-opacity="1" fill-rule="nonzero"/></g><g clip-path="url(#e3fa27423b)"><path fill="#000000" d="M 179.070312 15.550781 L 179.070312 41.367188 L 153.25 41.367188 L 153.25 58.582031 L 179.070312 58.582031 L 179.070312 84.398438 L 196.28125 84.398438 L 196.28125 58.582031 L 222.101562 58.582031 L 222.101562 41.367188 L 196.28125 41.367188 L 196.28125 15.550781 Z M 84.398438 49.976562 L 84.398438 84.398438 L 49.976562 84.398438 L 49.976562 101.613281 L 84.398438 101.613281 L 84.398438 136.039062 L 101.613281 136.039062 L 101.613281 101.613281 L 136.039062 101.613281 L 136.039062 84.398438 L 101.613281 84.398438 L 101.613281 49.976562 Z M 273.738281 49.976562 L 273.738281 84.398438 L 239.3125 84.398438 L 239.3125 101.613281 L 273.738281 101.613281 L 273.738281 136.039062 L 290.949219 136.039062 L 290.949219 101.613281 L 325.375 101.613281 L 325.375 84.398438 L 290.949219 84.398438 L 290.949219 49.976562 Z M 170.460938 118.824219 L 170.460938 170.460938 L 118.824219 170.460938 L 118.824219 204.886719 L 170.460938 204.886719 L 170.460938 256.523438 L 204.886719 256.523438 L 204.886719 204.886719 L 256.523438 204.886719 L 256.523438 170.460938 L 204.886719 170.460938 L 204.886719 118.824219 Z M 41.367188 153.25 L 41.367188 179.070312 L 15.550781 179.070312 L 15.550781 196.28125 L 41.367188 196.28125 L 41.367188 222.101562 L 58.582031 222.101562 L 58.582031 196.28125 L 84.398438 196.28125 L 84.398438 179.070312 L 58.582031 179.070312 L 58.582031 153.25 Z M 316.769531 153.25 L 316.769531 179.070312 L 290.949219 179.070312 L 290.949219 196.28125 L 316.769531 196.28125 L 316.769531 222.101562 L 333.980469 222.101562 L 333.980469 196.28125 L 359.800781 196.28125 L 359.800781 179.070312 L 333.980469 179.070312 L 333.980469 153.25 Z M 84.398438 239.3125 L 84.398438 273.738281 L 49.976562 273.738281 L 49.976562 290.949219 L 84.398438 290.949219 L 84.398438 325.375 L 101.613281 325.375 L 101.613281 290.949219 L 136.039062 290.949219 L 136.039062 273.738281 L 101.613281 273.738281 L 101.613281 239.3125 Z M 273.738281 239.3125 L 273.738281 273.738281 L 239.3125 273.738281 L 239.3125 290.949219 L 273.738281 290.949219 L 273.738281 325.375 L 290.949219 325.375 L 290.949219 290.949219 L 325.375 290.949219 L 325.375 273.738281 L 290.949219 273.738281 L 290.949219 239.3125 Z M 179.070312 290.949219 L 179.070312 316.769531 L 153.25 316.769531 L 153.25 333.980469 L 179.070312 333.980469 L 179.070312 359.800781 L 196.28125 359.800781 L 196.28125 333.980469 L 222.101562 333.980469 L 222.101562 316.769531 L 196.28125 316.769531 L 196.28125 290.949219 Z M 179.070312 290.949219 " fill-opacity="1" fill-rule="nonzero"/></g></svg>